<?xml version="1.0" encoding="utf-8"?>
<!-- Generator: Adobe Illustrator 22.1.0, SVG Export Plug-In . SVG Version: 6.00 Build 0)  -->
<svg version="1.1" xmlns="http://www.w3.org/2000/svg" xmlns:xlink="http://www.w3.org/1999/xlink" x="0px" y="0px"
	 viewBox="0 0 321 303" style="enable-background:new 0 0 321 303;" xml:space="preserve">
<style type="text/css">
	.st0{display:none;}
	.st1{display:inline;fill:#3FC6F1;fill-opacity:0.5;}
	.st2{display:inline;}
	.st3{fill:none;stroke:#3FC6F1;stroke-width:2.2307;stroke-miterlimit:10;}
	.st4{fill:none;stroke:#3FC6F1;stroke-width:0.7436;stroke-miterlimit:10;}
	.st5{fill:none;stroke:#3FC6F1;stroke-width:0.7436;stroke-linecap:round;stroke-miterlimit:10;}
	.st6{fill:none;stroke:#3FC6F1;stroke-width:0.7436;stroke-linecap:round;stroke-miterlimit:10;stroke-dasharray:0,2.2132;}
	.st7{fill:none;stroke:#3FC6F1;stroke-width:2.672;stroke-miterlimit:10;}
	.st8{fill:none;stroke:#3FC6F1;stroke-width:0.8907;stroke-miterlimit:10;}
	.st9{fill:none;stroke:#3FC6F1;stroke-width:0.8907;stroke-linecap:round;stroke-miterlimit:10;}
	.st10{fill:none;stroke:#3FC6F1;stroke-width:0.8907;stroke-linecap:round;stroke-miterlimit:10;stroke-dasharray:0,2.651;}
	.st11{fill:#1A7C99;}
	.st12{fill:#3FC6F1;}
	.st13{fill:#218BAA;}
</style>
<g id="Layer_3">
</g>
<g id="Layer_1" class="st0">
	<polygon id="XMLID_121_" class="st1" points="290.9,-27.8 209.7,-109 128.4,-109 128.4,-27.8 209.7,53.4 128.4,134.7 128.4,215.9 
		209.7,215.9 290.9,134.7 372.1,215.9 372.1,215.9 372.1,215.9 453.3,215.9 453.3,134.7 372.1,53.4 453.3,-27.8 453.3,-109 
		372.1,-109 	"/>
	<polygon id="XMLID_140_" class="st1" points="209.4,-27.8 128.2,-109 47,-109 47,-27.8 128.2,53.4 47,134.7 47,215.9 128.2,215.9 
		209.4,134.7 290.7,215.9 290.7,215.9 290.7,215.9 371.9,215.9 371.9,134.7 290.7,53.4 371.9,-27.8 371.9,-109 290.7,-109 	"/>
	<polygon id="XMLID_69_" class="st1" points="251.7,-27.8 170.5,-109 89.3,-109 89.3,-27.8 170.5,53.4 89.3,134.7 89.3,215.9 
		170.5,215.9 251.7,134.7 333,215.9 333,215.9 333,215.9 414.2,215.9 414.2,134.7 333,53.4 414.2,-27.8 414.2,-109 333,-109 	"/>
</g>
<g id="Layer_2" class="st0">
	<g id="XMLID_334_" class="st2">
		<polygon id="XMLID_2023_" class="st3" points="30.4,55.4 30.4,110.7 85.7,166 30.4,221.3 30.4,276.7 85.7,276.7 141.1,221.3 
			196.4,276.7 251.7,276.7 251.7,221.3 196.4,166 251.7,110.7 251.7,55.4 196.4,55.4 141.1,110.7 85.7,55.4 		"/>
		<line id="XMLID_2022_" class="st3" x1="473" y1="-166" x2="251.7" y2="55.4"/>
		<line id="XMLID_2020_" class="st4" x1="251.7" y1="55.4" x2="30.4" y2="276.7"/>
		<line id="XMLID_2019_" class="st3" x1="417.7" y1="-55.3" x2="251.7" y2="110.7"/>
		<line id="XMLID_2018_" class="st3" x1="473" y1="0" x2="251.7" y2="221.3"/>
		<line id="XMLID_2017_" class="st3" x1="473" y1="55.4" x2="251.7" y2="276.7"/>
		<line id="XMLID_2016_" class="st3" x1="417.7" y1="-166" x2="196.4" y2="55.4"/>
		<line id="XMLID_2014_" class="st3" x1="307" y1="-166" x2="85.7" y2="55.4"/>
		<line id="XMLID_2010_" class="st3" x1="251.7" y1="-166" x2="30.4" y2="55.4"/>
		<polyline id="XMLID_2009_" class="st3" points="473,55.4 473,0 417.7,-55.3 473,-110.6 473,-166 417.7,-166 362.4,-110.6 
			307,-166 251.7,-166 		"/>
		<g id="XMLID_335_">
			<g id="XMLID_2008_">
				<g>
					<line class="st5" x1="85.7" y1="276.7" x2="85.7" y2="276.7"/>
					<line class="st6" x1="83.5" y1="276.7" x2="31.5" y2="276.7"/>
					<line class="st5" x1="30.4" y1="276.7" x2="30.4" y2="276.7"/>
					<line class="st6" x1="30.4" y1="274.5" x2="30.4" y2="222.5"/>
					<line class="st5" x1="30.4" y1="221.3" x2="30.4" y2="221.3"/>
					<line class="st6" x1="32.6" y1="221.3" x2="84.6" y2="221.3"/>
					<line class="st5" x1="85.7" y1="221.3" x2="85.7" y2="221.3"/>
					<line class="st6" x1="85.7" y1="223.6" x2="85.7" y2="275.6"/>
				</g>
			</g>
			<g id="XMLID_2007_">
				<g>
					<line class="st5" x1="141.1" y1="276.7" x2="141.1" y2="276.7"/>
					<line class="st6" x1="138.8" y1="276.7" x2="86.8" y2="276.7"/>
					<line class="st5" x1="85.7" y1="276.7" x2="85.7" y2="276.7"/>
					<line class="st6" x1="85.7" y1="274.5" x2="85.7" y2="222.5"/>
					<line class="st5" x1="85.7" y1="221.3" x2="85.7" y2="221.3"/>
					<line class="st6" x1="87.9" y1="221.3" x2="139.9" y2="221.3"/>
					<line class="st5" x1="141.1" y1="221.3" x2="141.1" y2="221.3"/>
					<line class="st6" x1="141.1" y1="223.6" x2="141.1" y2="275.6"/>
				</g>
			</g>
			<g id="XMLID_2006_">
				<g>
					<line class="st5" x1="196.4" y1="276.7" x2="196.4" y2="276.7"/>
					<line class="st6" x1="194.2" y1="276.7" x2="142.2" y2="276.7"/>
					<line class="st5" x1="141.1" y1="276.7" x2="141.1" y2="276.7"/>
					<line class="st6" x1="141.1" y1="274.5" x2="141.1" y2="222.5"/>
					<line class="st5" x1="141.1" y1="221.3" x2="141.1" y2="221.3"/>
					<line class="st6" x1="143.3" y1="221.3" x2="195.3" y2="221.3"/>
					<line class="st5" x1="196.4" y1="221.3" x2="196.4" y2="221.3"/>
					<line class="st6" x1="196.4" y1="223.6" x2="196.4" y2="275.6"/>
				</g>
			</g>
			<g id="XMLID_2005_">
				<g>
					<line class="st5" x1="251.7" y1="276.7" x2="251.7" y2="276.7"/>
					<line class="st6" x1="249.5" y1="276.7" x2="197.5" y2="276.7"/>
					<line class="st5" x1="196.4" y1="276.7" x2="196.4" y2="276.7"/>
					<line class="st6" x1="196.4" y1="274.5" x2="196.4" y2="222.5"/>
					<line class="st5" x1="196.4" y1="221.3" x2="196.4" y2="221.3"/>
					<line class="st6" x1="198.6" y1="221.3" x2="250.6" y2="221.3"/>
					<line class="st5" x1="251.7" y1="221.3" x2="251.7" y2="221.3"/>
					<line class="st6" x1="251.7" y1="223.6" x2="251.7" y2="275.6"/>
				</g>
			</g>
			<g id="XMLID_2004_">
				<g>
					<line class="st5" x1="85.7" y1="221.3" x2="85.7" y2="221.3"/>
					<line class="st6" x1="83.5" y1="221.3" x2="31.5" y2="221.3"/>
					<line class="st5" x1="30.4" y1="221.3" x2="30.4" y2="221.3"/>
					<line class="st6" x1="30.4" y1="219.1" x2="30.4" y2="167.1"/>
					<line class="st5" x1="30.4" y1="166" x2="30.4" y2="166"/>
					<line class="st6" x1="32.6" y1="166" x2="84.6" y2="166"/>
					<line class="st5" x1="85.7" y1="166" x2="85.7" y2="166"/>
					<line class="st6" x1="85.7" y1="168.2" x2="85.7" y2="220.2"/>
				</g>
			</g>
			<g id="XMLID_2003_">
				<g>
					<line class="st5" x1="141.1" y1="221.3" x2="141.1" y2="221.3"/>
					<line class="st6" x1="138.8" y1="221.3" x2="86.8" y2="221.3"/>
					<line class="st5" x1="85.7" y1="221.3" x2="85.7" y2="221.3"/>
					<line class="st6" x1="85.7" y1="219.1" x2="85.7" y2="167.1"/>
					<line class="st5" x1="85.7" y1="166" x2="85.7" y2="166"/>
					<line class="st6" x1="87.9" y1="166" x2="139.9" y2="166"/>
					<line class="st5" x1="141.1" y1="166" x2="141.1" y2="166"/>
					<line class="st6" x1="141.1" y1="168.2" x2="141.1" y2="220.2"/>
				</g>
			</g>
			<g id="XMLID_2002_">
				<g>
					<line class="st5" x1="196.4" y1="221.3" x2="196.4" y2="221.3"/>
					<line class="st6" x1="194.2" y1="221.3" x2="142.2" y2="221.3"/>
					<line class="st5" x1="141.1" y1="221.3" x2="141.1" y2="221.3"/>
					<line class="st6" x1="141.1" y1="219.1" x2="141.1" y2="167.1"/>
					<line class="st5" x1="141.1" y1="166" x2="141.1" y2="166"/>
					<line class="st6" x1="143.3" y1="166" x2="195.3" y2="166"/>
					<line class="st5" x1="196.4" y1="166" x2="196.4" y2="166"/>
					<line class="st6" x1="196.4" y1="168.2" x2="196.4" y2="220.2"/>
				</g>
			</g>
			<g id="XMLID_2001_">
				<g>
					<line class="st5" x1="251.7" y1="221.3" x2="251.7" y2="221.3"/>
					<line class="st6" x1="249.5" y1="221.3" x2="197.5" y2="221.3"/>
					<line class="st5" x1="196.4" y1="221.3" x2="196.4" y2="221.3"/>
					<line class="st6" x1="196.4" y1="219.1" x2="196.4" y2="167.1"/>
					<line class="st5" x1="196.4" y1="166" x2="196.4" y2="166"/>
					<line class="st6" x1="198.6" y1="166" x2="250.6" y2="166"/>
					<line class="st5" x1="251.7" y1="166" x2="251.7" y2="166"/>
					<line class="st6" x1="251.7" y1="168.2" x2="251.7" y2="220.2"/>
				</g>
			</g>
			<g id="XMLID_1998_">
				<g>
					<line class="st5" x1="85.7" y1="166" x2="85.7" y2="166"/>
					<line class="st6" x1="83.5" y1="166" x2="31.5" y2="166"/>
					<line class="st5" x1="30.4" y1="166" x2="30.4" y2="166"/>
					<line class="st6" x1="30.4" y1="163.8" x2="30.4" y2="111.8"/>
					<line class="st5" x1="30.4" y1="110.7" x2="30.4" y2="110.7"/>
					<line class="st6" x1="32.6" y1="110.7" x2="84.6" y2="110.7"/>
					<line class="st5" x1="85.7" y1="110.7" x2="85.7" y2="110.7"/>
					<line class="st6" x1="85.7" y1="112.9" x2="85.7" y2="164.9"/>
				</g>
			</g>
			<g id="XMLID_1997_">
				<g>
					<line class="st5" x1="141.1" y1="166" x2="141.1" y2="166"/>
					<line class="st6" x1="138.8" y1="166" x2="86.8" y2="166"/>
					<line class="st5" x1="85.7" y1="166" x2="85.7" y2="166"/>
					<line class="st6" x1="85.7" y1="163.8" x2="85.7" y2="111.8"/>
					<line class="st5" x1="85.7" y1="110.7" x2="85.7" y2="110.7"/>
					<line class="st6" x1="87.9" y1="110.7" x2="139.9" y2="110.7"/>
					<line class="st5" x1="141.1" y1="110.7" x2="141.1" y2="110.7"/>
					<line class="st6" x1="141.1" y1="112.9" x2="141.1" y2="164.9"/>
				</g>
			</g>
			<g id="XMLID_1994_">
				<g>
					<line class="st5" x1="196.4" y1="166" x2="196.4" y2="166"/>
					<line class="st6" x1="194.2" y1="166" x2="142.2" y2="166"/>
					<line class="st5" x1="141.1" y1="166" x2="141.1" y2="166"/>
					<line class="st6" x1="141.1" y1="163.8" x2="141.1" y2="111.8"/>
					<line class="st5" x1="141.1" y1="110.7" x2="141.1" y2="110.7"/>
					<line class="st6" x1="143.3" y1="110.7" x2="195.3" y2="110.7"/>
					<line class="st5" x1="196.4" y1="110.7" x2="196.4" y2="110.7"/>
					<line class="st6" x1="196.4" y1="112.9" x2="196.4" y2="164.9"/>
				</g>
			</g>
			<g id="XMLID_1993_">
				<g>
					<line class="st5" x1="251.7" y1="166" x2="251.7" y2="166"/>
					<line class="st6" x1="249.5" y1="166" x2="197.5" y2="166"/>
					<line class="st5" x1="196.4" y1="166" x2="196.4" y2="166"/>
					<line class="st6" x1="196.4" y1="163.8" x2="196.4" y2="111.8"/>
					<line class="st5" x1="196.4" y1="110.7" x2="196.4" y2="110.7"/>
					<line class="st6" x1="198.6" y1="110.7" x2="250.6" y2="110.7"/>
					<line class="st5" x1="251.7" y1="110.7" x2="251.7" y2="110.7"/>
					<line class="st6" x1="251.7" y1="112.9" x2="251.7" y2="164.9"/>
				</g>
			</g>
			<g id="XMLID_1992_">
				<g>
					<line class="st5" x1="85.7" y1="110.7" x2="85.7" y2="110.7"/>
					<line class="st6" x1="83.5" y1="110.7" x2="31.5" y2="110.7"/>
					<line class="st5" x1="30.4" y1="110.7" x2="30.4" y2="110.7"/>
					<line class="st6" x1="30.4" y1="108.5" x2="30.4" y2="56.5"/>
					<line class="st5" x1="30.4" y1="55.4" x2="30.4" y2="55.4"/>
					<line class="st6" x1="32.6" y1="55.4" x2="84.6" y2="55.4"/>
					<line class="st5" x1="85.7" y1="55.4" x2="85.7" y2="55.4"/>
					<line class="st6" x1="85.7" y1="57.6" x2="85.7" y2="109.6"/>
				</g>
			</g>
			<g id="XMLID_1991_">
				<g>
					<line class="st5" x1="141.1" y1="110.7" x2="141.1" y2="110.7"/>
					<line class="st6" x1="138.8" y1="110.7" x2="86.8" y2="110.7"/>
					<line class="st5" x1="85.7" y1="110.7" x2="85.7" y2="110.7"/>
					<line class="st6" x1="85.7" y1="108.5" x2="85.7" y2="56.5"/>
					<line class="st5" x1="85.7" y1="55.4" x2="85.7" y2="55.4"/>
					<line class="st6" x1="87.9" y1="55.4" x2="139.9" y2="55.4"/>
					<line class="st5" x1="141.1" y1="55.4" x2="141.1" y2="55.4"/>
					<line class="st6" x1="141.1" y1="57.6" x2="141.1" y2="109.6"/>
				</g>
			</g>
			<g id="XMLID_1990_">
				<g>
					<line class="st5" x1="196.4" y1="110.7" x2="196.4" y2="110.7"/>
					<line class="st6" x1="194.2" y1="110.7" x2="142.2" y2="110.7"/>
					<line class="st5" x1="141.1" y1="110.7" x2="141.1" y2="110.7"/>
					<line class="st6" x1="141.1" y1="108.5" x2="141.1" y2="56.5"/>
					<line class="st5" x1="141.1" y1="55.4" x2="141.1" y2="55.4"/>
					<line class="st6" x1="143.3" y1="55.4" x2="195.3" y2="55.4"/>
					<line class="st5" x1="196.4" y1="55.4" x2="196.4" y2="55.4"/>
					<line class="st6" x1="196.4" y1="57.6" x2="196.4" y2="109.6"/>
				</g>
			</g>
			<g id="XMLID_1274_">
				<g>
					<line class="st5" x1="251.7" y1="110.7" x2="251.7" y2="110.7"/>
					<line class="st6" x1="249.5" y1="110.7" x2="197.5" y2="110.7"/>
					<line class="st5" x1="196.4" y1="110.7" x2="196.4" y2="110.7"/>
					<line class="st6" x1="196.4" y1="108.5" x2="196.4" y2="56.5"/>
					<line class="st5" x1="196.4" y1="55.4" x2="196.4" y2="55.4"/>
					<line class="st6" x1="198.6" y1="55.4" x2="250.6" y2="55.4"/>
					<line class="st5" x1="251.7" y1="55.4" x2="251.7" y2="55.4"/>
					<line class="st6" x1="251.7" y1="57.6" x2="251.7" y2="109.6"/>
				</g>
			</g>
			<g id="XMLID_1273_">
				<g>
					<line class="st5" x1="307" y1="55.4" x2="307" y2="55.4"/>
					<line class="st6" x1="304.8" y1="55.4" x2="252.8" y2="55.4"/>
					<line class="st5" x1="251.7" y1="55.4" x2="251.7" y2="55.4"/>
					<line class="st6" x1="251.7" y1="53.1" x2="251.7" y2="1.1"/>
					<line class="st5" x1="251.7" y1="0" x2="251.7" y2="0"/>
					<line class="st6" x1="253.9" y1="0" x2="305.9" y2="0"/>
					<line class="st5" x1="307" y1="0" x2="307" y2="0"/>
					<line class="st6" x1="307" y1="2.2" x2="307" y2="54.2"/>
				</g>
			</g>
			<g id="XMLID_1272_">
				<g>
					<line class="st5" x1="362.4" y1="55.4" x2="362.4" y2="55.4"/>
					<line class="st6" x1="360.2" y1="55.4" x2="308.2" y2="55.4"/>
					<line class="st5" x1="307" y1="55.4" x2="307" y2="55.4"/>
					<line class="st6" x1="307" y1="53.1" x2="307" y2="1.1"/>
					<line class="st5" x1="307" y1="0" x2="307" y2="0"/>
					<line class="st6" x1="309.3" y1="0" x2="361.3" y2="0"/>
					<line class="st5" x1="362.4" y1="0" x2="362.4" y2="0"/>
					<line class="st6" x1="362.4" y1="2.2" x2="362.4" y2="54.2"/>
				</g>
			</g>
			<g id="XMLID_1271_">
				<g>
					<line class="st5" x1="417.7" y1="55.4" x2="417.7" y2="55.4"/>
					<line class="st6" x1="415.5" y1="55.4" x2="363.5" y2="55.4"/>
					<line class="st5" x1="362.4" y1="55.4" x2="362.4" y2="55.4"/>
					<line class="st6" x1="362.4" y1="53.1" x2="362.4" y2="1.1"/>
					<line class="st5" x1="362.4" y1="0" x2="362.4" y2="0"/>
					<line class="st6" x1="364.6" y1="0" x2="416.6" y2="0"/>
					<line class="st5" x1="417.7" y1="0" x2="417.7" y2="0"/>
					<line class="st6" x1="417.7" y1="2.2" x2="417.7" y2="54.2"/>
				</g>
			</g>
			<g id="XMLID_1270_">
				<g>
					<line class="st5" x1="473" y1="55.4" x2="473" y2="55.4"/>
					<line class="st6" x1="470.8" y1="55.4" x2="418.8" y2="55.4"/>
					<line class="st5" x1="417.7" y1="55.4" x2="417.7" y2="55.4"/>
					<line class="st6" x1="417.7" y1="53.1" x2="417.7" y2="1.1"/>
					<line class="st5" x1="417.7" y1="0" x2="417.7" y2="0"/>
					<line class="st6" x1="419.9" y1="0" x2="471.9" y2="0"/>
					<line class="st5" x1="473" y1="0" x2="473" y2="0"/>
					<line class="st6" x1="473" y1="2.2" x2="473" y2="54.2"/>
				</g>
			</g>
			<g id="XMLID_1269_">
				<g>
					<line class="st5" x1="307" y1="0" x2="307" y2="0"/>
					<line class="st6" x1="304.8" y1="0" x2="252.8" y2="0"/>
					<line class="st5" x1="251.7" y1="0" x2="251.7" y2="0"/>
					<line class="st6" x1="251.7" y1="-2.2" x2="251.7" y2="-54.2"/>
					<line class="st5" x1="251.7" y1="-55.3" x2="251.7" y2="-55.3"/>
					<line class="st6" x1="253.9" y1="-55.3" x2="305.9" y2="-55.3"/>
					<line class="st5" x1="307" y1="-55.3" x2="307" y2="-55.3"/>
					<line class="st6" x1="307" y1="-53.1" x2="307" y2="-1.1"/>
				</g>
			</g>
			<g id="XMLID_1268_">
				<g>
					<line class="st5" x1="362.4" y1="0" x2="362.4" y2="0"/>
					<line class="st6" x1="360.2" y1="0" x2="308.2" y2="0"/>
					<line class="st5" x1="307" y1="0" x2="307" y2="0"/>
					<line class="st6" x1="307" y1="-2.2" x2="307" y2="-54.2"/>
					<line class="st5" x1="307" y1="-55.3" x2="307" y2="-55.3"/>
					<line class="st6" x1="309.3" y1="-55.3" x2="361.3" y2="-55.3"/>
					<line class="st5" x1="362.4" y1="-55.3" x2="362.4" y2="-55.3"/>
					<line class="st6" x1="362.4" y1="-53.1" x2="362.4" y2="-1.1"/>
				</g>
			</g>
			<g id="XMLID_1267_">
				<g>
					<line class="st5" x1="417.7" y1="0" x2="417.7" y2="0"/>
					<line class="st6" x1="415.5" y1="0" x2="363.5" y2="0"/>
					<line class="st5" x1="362.4" y1="0" x2="362.4" y2="0"/>
					<line class="st6" x1="362.4" y1="-2.2" x2="362.4" y2="-54.2"/>
					<line class="st5" x1="362.4" y1="-55.3" x2="362.4" y2="-55.3"/>
					<line class="st6" x1="364.6" y1="-55.3" x2="416.6" y2="-55.3"/>
					<line class="st5" x1="417.7" y1="-55.3" x2="417.7" y2="-55.3"/>
					<line class="st6" x1="417.7" y1="-53.1" x2="417.7" y2="-1.1"/>
				</g>
			</g>
			<g id="XMLID_1266_">
				<g>
					<line class="st5" x1="473" y1="0" x2="473" y2="0"/>
					<line class="st6" x1="470.8" y1="0" x2="418.8" y2="0"/>
					<line class="st5" x1="417.7" y1="0" x2="417.7" y2="0"/>
					<line class="st6" x1="417.7" y1="-2.2" x2="417.7" y2="-54.2"/>
					<line class="st5" x1="417.7" y1="-55.3" x2="417.7" y2="-55.3"/>
					<line class="st6" x1="419.9" y1="-55.3" x2="471.9" y2="-55.3"/>
					<line class="st5" x1="473" y1="-55.3" x2="473" y2="-55.3"/>
					<line class="st6" x1="473" y1="-53.1" x2="473" y2="-1.1"/>
				</g>
			</g>
			<g id="XMLID_1265_">
				<g>
					<line class="st5" x1="307" y1="-55.3" x2="307" y2="-55.3"/>
					<line class="st6" x1="304.8" y1="-55.3" x2="252.8" y2="-55.3"/>
					<line class="st5" x1="251.7" y1="-55.3" x2="251.7" y2="-55.3"/>
					<line class="st6" x1="251.7" y1="-57.5" x2="251.7" y2="-109.5"/>
					<line class="st5" x1="251.7" y1="-110.6" x2="251.7" y2="-110.6"/>
					<line class="st6" x1="253.9" y1="-110.6" x2="305.9" y2="-110.6"/>
					<line class="st5" x1="307" y1="-110.6" x2="307" y2="-110.6"/>
					<line class="st6" x1="307" y1="-108.4" x2="307" y2="-56.4"/>
				</g>
			</g>
			<g id="XMLID_1264_">
				<g>
					<line class="st5" x1="362.4" y1="-55.3" x2="362.4" y2="-55.3"/>
					<line class="st6" x1="360.2" y1="-55.3" x2="308.2" y2="-55.3"/>
					<line class="st5" x1="307" y1="-55.3" x2="307" y2="-55.3"/>
					<line class="st6" x1="307" y1="-57.5" x2="307" y2="-109.5"/>
					<line class="st5" x1="307" y1="-110.6" x2="307" y2="-110.6"/>
					<line class="st6" x1="309.3" y1="-110.6" x2="361.3" y2="-110.6"/>
					<line class="st5" x1="362.4" y1="-110.6" x2="362.4" y2="-110.6"/>
					<line class="st6" x1="362.4" y1="-108.4" x2="362.4" y2="-56.4"/>
				</g>
			</g>
			<g id="XMLID_1263_">
				<g>
					<line class="st5" x1="417.7" y1="-55.3" x2="417.7" y2="-55.3"/>
					<line class="st6" x1="415.5" y1="-55.3" x2="363.5" y2="-55.3"/>
					<line class="st5" x1="362.4" y1="-55.3" x2="362.4" y2="-55.3"/>
					<line class="st6" x1="362.4" y1="-57.5" x2="362.4" y2="-109.5"/>
					<line class="st5" x1="362.4" y1="-110.6" x2="362.4" y2="-110.6"/>
					<line class="st6" x1="364.6" y1="-110.6" x2="416.6" y2="-110.6"/>
					<line class="st5" x1="417.7" y1="-110.6" x2="417.7" y2="-110.6"/>
					<line class="st6" x1="417.7" y1="-108.4" x2="417.7" y2="-56.4"/>
				</g>
			</g>
			<g id="XMLID_1262_">
				<g>
					<line class="st5" x1="473" y1="-55.3" x2="473" y2="-55.3"/>
					<line class="st6" x1="470.8" y1="-55.3" x2="418.8" y2="-55.3"/>
					<line class="st5" x1="417.7" y1="-55.3" x2="417.7" y2="-55.3"/>
					<line class="st6" x1="417.7" y1="-57.5" x2="417.7" y2="-109.5"/>
					<line class="st5" x1="417.7" y1="-110.6" x2="417.7" y2="-110.6"/>
					<line class="st6" x1="419.9" y1="-110.6" x2="471.9" y2="-110.6"/>
					<line class="st5" x1="473" y1="-110.6" x2="473" y2="-110.6"/>
					<line class="st6" x1="473" y1="-108.4" x2="473" y2="-56.4"/>
				</g>
			</g>
			<g id="XMLID_1261_">
				<g>
					<line class="st5" x1="307" y1="-110.6" x2="307" y2="-110.6"/>
					<line class="st6" x1="304.8" y1="-110.6" x2="252.8" y2="-110.6"/>
					<line class="st5" x1="251.7" y1="-110.6" x2="251.7" y2="-110.6"/>
					<line class="st6" x1="251.7" y1="-112.8" x2="251.7" y2="-164.9"/>
					<line class="st5" x1="251.7" y1="-166" x2="251.7" y2="-166"/>
					<line class="st6" x1="253.9" y1="-166" x2="305.9" y2="-166"/>
					<line class="st5" x1="307" y1="-166" x2="307" y2="-166"/>
					<line class="st6" x1="307" y1="-163.8" x2="307" y2="-111.7"/>
				</g>
			</g>
			<g id="XMLID_1260_">
				<g>
					<line class="st5" x1="362.4" y1="-110.6" x2="362.4" y2="-110.6"/>
					<line class="st6" x1="360.2" y1="-110.6" x2="308.2" y2="-110.6"/>
					<line class="st5" x1="307" y1="-110.6" x2="307" y2="-110.6"/>
					<line class="st6" x1="307" y1="-112.8" x2="307" y2="-164.9"/>
					<line class="st5" x1="307" y1="-166" x2="307" y2="-166"/>
					<line class="st6" x1="309.3" y1="-166" x2="361.3" y2="-166"/>
					<line class="st5" x1="362.4" y1="-166" x2="362.4" y2="-166"/>
					<line class="st6" x1="362.4" y1="-163.8" x2="362.4" y2="-111.7"/>
				</g>
			</g>
			<g id="XMLID_1259_">
				<g>
					<line class="st5" x1="417.7" y1="-110.6" x2="417.7" y2="-110.6"/>
					<line class="st6" x1="415.5" y1="-110.6" x2="363.5" y2="-110.6"/>
					<line class="st5" x1="362.4" y1="-110.6" x2="362.4" y2="-110.6"/>
					<line class="st6" x1="362.4" y1="-112.8" x2="362.4" y2="-164.9"/>
					<line class="st5" x1="362.4" y1="-166" x2="362.4" y2="-166"/>
					<line class="st6" x1="364.6" y1="-166" x2="416.6" y2="-166"/>
					<line class="st5" x1="417.7" y1="-166" x2="417.7" y2="-166"/>
					<line class="st6" x1="417.7" y1="-163.8" x2="417.7" y2="-111.7"/>
				</g>
			</g>
			<g id="XMLID_336_">
				<g>
					<line class="st5" x1="473" y1="-110.6" x2="473" y2="-110.6"/>
					<line class="st6" x1="470.8" y1="-110.6" x2="418.8" y2="-110.6"/>
					<line class="st5" x1="417.7" y1="-110.6" x2="417.7" y2="-110.6"/>
					<line class="st6" x1="417.7" y1="-112.8" x2="417.7" y2="-164.9"/>
					<line class="st5" x1="417.7" y1="-166" x2="417.7" y2="-166"/>
					<line class="st6" x1="419.9" y1="-166" x2="471.9" y2="-166"/>
					<line class="st5" x1="473" y1="-166" x2="473" y2="-166"/>
					<line class="st6" x1="473" y1="-163.8" x2="473" y2="-111.7"/>
				</g>
			</g>
		</g>
	</g>
</g>
<g id="Layer_4" class="st0">
	<g id="XMLID_1_" class="st2">
		<polygon id="XMLID_113_" class="st7" points="117,-80 117,-13.7 183.3,52.6 117,118.8 117,185.1 183.3,185.1 249.6,118.8 
			315.8,185.1 382.1,185.1 382.1,118.8 315.8,52.6 382.1,-13.7 382.1,-80 315.8,-80 249.6,-13.7 183.3,-80 		"/>
		<line id="XMLID_111_" class="st8" x1="382.1" y1="-80" x2="117" y2="185.1"/>
		<path id="XMLID_116_" class="st7" d="M382.1,118.8"/>
		<g id="XMLID_38_">
			<g id="XMLID_102_">
				<g>
					<line class="st9" x1="183.3" y1="185.1" x2="183.3" y2="185.1"/>
					<line class="st10" x1="180.6" y1="185.1" x2="118.3" y2="185.1"/>
					<line class="st9" x1="117" y1="185.1" x2="117" y2="185.1"/>
					<line class="st10" x1="117" y1="182.5" x2="117" y2="120.2"/>
					<line class="st9" x1="117" y1="118.8" x2="117" y2="118.8"/>
					<line class="st10" x1="119.7" y1="118.8" x2="182" y2="118.8"/>
					<line class="st9" x1="183.3" y1="118.8" x2="183.3" y2="118.8"/>
					<line class="st10" x1="183.3" y1="121.5" x2="183.3" y2="183.8"/>
				</g>
			</g>
			<g id="XMLID_100_">
				<g>
					<line class="st9" x1="249.6" y1="185.1" x2="249.6" y2="185.1"/>
					<line class="st10" x1="246.9" y1="185.1" x2="184.6" y2="185.1"/>
					<line class="st9" x1="183.3" y1="185.1" x2="183.3" y2="185.1"/>
					<line class="st10" x1="183.3" y1="182.5" x2="183.3" y2="120.2"/>
					<line class="st9" x1="183.3" y1="118.8" x2="183.3" y2="118.8"/>
					<line class="st10" x1="185.9" y1="118.8" x2="248.2" y2="118.8"/>
					<line class="st9" x1="249.6" y1="118.8" x2="249.6" y2="118.8"/>
					<line class="st10" x1="249.6" y1="121.5" x2="249.6" y2="183.8"/>
				</g>
			</g>
			<g id="XMLID_98_">
				<g>
					<line class="st9" x1="315.8" y1="185.1" x2="315.8" y2="185.1"/>
					<line class="st10" x1="313.2" y1="185.1" x2="250.9" y2="185.1"/>
					<line class="st9" x1="249.6" y1="185.1" x2="249.6" y2="185.1"/>
					<line class="st10" x1="249.6" y1="182.5" x2="249.6" y2="120.2"/>
					<line class="st9" x1="249.6" y1="118.8" x2="249.6" y2="118.8"/>
					<line class="st10" x1="252.2" y1="118.8" x2="314.5" y2="118.8"/>
					<line class="st9" x1="315.8" y1="118.8" x2="315.8" y2="118.8"/>
					<line class="st10" x1="315.8" y1="121.5" x2="315.8" y2="183.8"/>
				</g>
			</g>
			<g id="XMLID_96_">
				<g>
					<line class="st9" x1="382.1" y1="185.1" x2="382.1" y2="185.1"/>
					<line class="st10" x1="379.5" y1="185.1" x2="317.2" y2="185.1"/>
					<line class="st9" x1="315.8" y1="185.1" x2="315.8" y2="185.1"/>
					<line class="st10" x1="315.8" y1="182.5" x2="315.8" y2="120.2"/>
					<line class="st9" x1="315.8" y1="118.8" x2="315.8" y2="118.8"/>
					<line class="st10" x1="318.5" y1="118.8" x2="380.8" y2="118.8"/>
					<line class="st9" x1="382.1" y1="118.8" x2="382.1" y2="118.8"/>
					<line class="st10" x1="382.1" y1="121.5" x2="382.1" y2="183.8"/>
				</g>
			</g>
			<g id="XMLID_94_">
				<g>
					<line class="st9" x1="183.3" y1="118.8" x2="183.3" y2="118.8"/>
					<line class="st10" x1="180.6" y1="118.8" x2="118.3" y2="118.8"/>
					<line class="st9" x1="117" y1="118.8" x2="117" y2="118.8"/>
					<line class="st10" x1="117" y1="116.2" x2="117" y2="53.9"/>
					<line class="st9" x1="117" y1="52.6" x2="117" y2="52.6"/>
					<line class="st10" x1="119.7" y1="52.6" x2="182" y2="52.6"/>
					<line class="st9" x1="183.3" y1="52.6" x2="183.3" y2="52.6"/>
					<line class="st10" x1="183.3" y1="55.2" x2="183.3" y2="117.5"/>
				</g>
			</g>
			<g id="XMLID_92_">
				<g>
					<line class="st9" x1="249.6" y1="118.8" x2="249.6" y2="118.8"/>
					<line class="st10" x1="246.9" y1="118.8" x2="184.6" y2="118.8"/>
					<line class="st9" x1="183.3" y1="118.8" x2="183.3" y2="118.8"/>
					<line class="st10" x1="183.3" y1="116.2" x2="183.3" y2="53.9"/>
					<line class="st9" x1="183.3" y1="52.6" x2="183.3" y2="52.6"/>
					<line class="st10" x1="185.9" y1="52.6" x2="248.2" y2="52.6"/>
					<line class="st9" x1="249.6" y1="52.6" x2="249.6" y2="52.6"/>
					<line class="st10" x1="249.6" y1="55.2" x2="249.6" y2="117.5"/>
				</g>
			</g>
			<g id="XMLID_90_">
				<g>
					<line class="st9" x1="315.8" y1="118.8" x2="315.8" y2="118.8"/>
					<line class="st10" x1="313.2" y1="118.8" x2="250.9" y2="118.8"/>
					<line class="st9" x1="249.6" y1="118.8" x2="249.6" y2="118.8"/>
					<line class="st10" x1="249.6" y1="116.2" x2="249.6" y2="53.9"/>
					<line class="st9" x1="249.6" y1="52.6" x2="249.6" y2="52.6"/>
					<line class="st10" x1="252.2" y1="52.6" x2="314.5" y2="52.6"/>
					<line class="st9" x1="315.8" y1="52.6" x2="315.8" y2="52.6"/>
					<line class="st10" x1="315.8" y1="55.2" x2="315.8" y2="117.5"/>
				</g>
			</g>
			<g id="XMLID_88_">
				<g>
					<line class="st9" x1="382.1" y1="118.8" x2="382.1" y2="118.8"/>
					<line class="st10" x1="379.5" y1="118.8" x2="317.2" y2="118.8"/>
					<line class="st9" x1="315.8" y1="118.8" x2="315.8" y2="118.8"/>
					<line class="st10" x1="315.8" y1="116.2" x2="315.8" y2="53.9"/>
					<line class="st9" x1="315.8" y1="52.6" x2="315.8" y2="52.6"/>
					<line class="st10" x1="318.5" y1="52.6" x2="380.8" y2="52.6"/>
					<line class="st9" x1="382.1" y1="52.6" x2="382.1" y2="52.6"/>
					<line class="st10" x1="382.1" y1="55.2" x2="382.1" y2="117.5"/>
				</g>
			</g>
			<g id="XMLID_86_">
				<g>
					<line class="st9" x1="183.3" y1="52.6" x2="183.3" y2="52.6"/>
					<line class="st10" x1="180.6" y1="52.6" x2="118.3" y2="52.6"/>
					<line class="st9" x1="117" y1="52.6" x2="117" y2="52.6"/>
					<line class="st10" x1="117" y1="49.9" x2="117" y2="-12.4"/>
					<line class="st9" x1="117" y1="-13.7" x2="117" y2="-13.7"/>
					<line class="st10" x1="119.7" y1="-13.7" x2="182" y2="-13.7"/>
					<line class="st9" x1="183.3" y1="-13.7" x2="183.3" y2="-13.7"/>
					<line class="st10" x1="183.3" y1="-11.1" x2="183.3" y2="51.2"/>
				</g>
			</g>
			<g id="XMLID_84_">
				<g>
					<line class="st9" x1="249.6" y1="52.6" x2="249.6" y2="52.6"/>
					<line class="st10" x1="246.9" y1="52.6" x2="184.6" y2="52.6"/>
					<line class="st9" x1="183.3" y1="52.6" x2="183.3" y2="52.6"/>
					<line class="st10" x1="183.3" y1="49.9" x2="183.3" y2="-12.4"/>
					<line class="st9" x1="183.3" y1="-13.7" x2="183.3" y2="-13.7"/>
					<line class="st10" x1="185.9" y1="-13.7" x2="248.2" y2="-13.7"/>
					<line class="st9" x1="249.6" y1="-13.7" x2="249.6" y2="-13.7"/>
					<line class="st10" x1="249.6" y1="-11.1" x2="249.6" y2="51.2"/>
				</g>
			</g>
			<g id="XMLID_82_">
				<g>
					<line class="st9" x1="315.8" y1="52.6" x2="315.8" y2="52.6"/>
					<line class="st10" x1="313.2" y1="52.6" x2="250.9" y2="52.6"/>
					<line class="st9" x1="249.6" y1="52.6" x2="249.6" y2="52.6"/>
					<line class="st10" x1="249.6" y1="49.9" x2="249.6" y2="-12.4"/>
					<line class="st9" x1="249.6" y1="-13.7" x2="249.6" y2="-13.7"/>
					<line class="st10" x1="252.2" y1="-13.7" x2="314.5" y2="-13.7"/>
					<line class="st9" x1="315.8" y1="-13.7" x2="315.8" y2="-13.7"/>
					<line class="st10" x1="315.8" y1="-11.1" x2="315.8" y2="51.2"/>
				</g>
			</g>
			<g id="XMLID_80_">
				<g>
					<line class="st9" x1="382.1" y1="52.6" x2="382.1" y2="52.6"/>
					<line class="st10" x1="379.5" y1="52.6" x2="317.2" y2="52.6"/>
					<line class="st9" x1="315.8" y1="52.6" x2="315.8" y2="52.6"/>
					<line class="st10" x1="315.8" y1="49.9" x2="315.8" y2="-12.4"/>
					<line class="st9" x1="315.8" y1="-13.7" x2="315.8" y2="-13.7"/>
					<line class="st10" x1="318.5" y1="-13.7" x2="380.8" y2="-13.7"/>
					<line class="st9" x1="382.1" y1="-13.7" x2="382.1" y2="-13.7"/>
					<line class="st10" x1="382.1" y1="-11.1" x2="382.1" y2="51.2"/>
				</g>
			</g>
			<g id="XMLID_78_">
				<g>
					<line class="st9" x1="183.3" y1="-13.7" x2="183.3" y2="-13.7"/>
					<line class="st10" x1="180.6" y1="-13.7" x2="118.3" y2="-13.7"/>
					<line class="st9" x1="117" y1="-13.7" x2="117" y2="-13.7"/>
					<line class="st10" x1="117" y1="-16.4" x2="117" y2="-78.7"/>
					<line class="st9" x1="117" y1="-80" x2="117" y2="-80"/>
					<line class="st10" x1="119.7" y1="-80" x2="182" y2="-80"/>
					<line class="st9" x1="183.3" y1="-80" x2="183.3" y2="-80"/>
					<line class="st10" x1="183.3" y1="-77.3" x2="183.3" y2="-15"/>
				</g>
			</g>
			<g id="XMLID_76_">
				<g>
					<line class="st9" x1="249.6" y1="-13.7" x2="249.6" y2="-13.7"/>
					<line class="st10" x1="246.9" y1="-13.7" x2="184.6" y2="-13.7"/>
					<line class="st9" x1="183.3" y1="-13.7" x2="183.3" y2="-13.7"/>
					<line class="st10" x1="183.3" y1="-16.4" x2="183.3" y2="-78.7"/>
					<line class="st9" x1="183.3" y1="-80" x2="183.3" y2="-80"/>
					<line class="st10" x1="185.9" y1="-80" x2="248.2" y2="-80"/>
					<line class="st9" x1="249.6" y1="-80" x2="249.6" y2="-80"/>
					<line class="st10" x1="249.6" y1="-77.3" x2="249.6" y2="-15"/>
				</g>
			</g>
			<g id="XMLID_74_">
				<g>
					<line class="st9" x1="315.8" y1="-13.7" x2="315.8" y2="-13.7"/>
					<line class="st10" x1="313.2" y1="-13.7" x2="250.9" y2="-13.7"/>
					<line class="st9" x1="249.6" y1="-13.7" x2="249.6" y2="-13.7"/>
					<line class="st10" x1="249.6" y1="-16.4" x2="249.6" y2="-78.7"/>
					<line class="st9" x1="249.6" y1="-80" x2="249.6" y2="-80"/>
					<line class="st10" x1="252.2" y1="-80" x2="314.5" y2="-80"/>
					<line class="st9" x1="315.8" y1="-80" x2="315.8" y2="-80"/>
					<line class="st10" x1="315.8" y1="-77.3" x2="315.8" y2="-15"/>
				</g>
			</g>
			<g id="XMLID_72_">
				<g>
					<line class="st9" x1="382.1" y1="-13.7" x2="382.1" y2="-13.7"/>
					<line class="st10" x1="379.5" y1="-13.7" x2="317.2" y2="-13.7"/>
					<line class="st9" x1="315.8" y1="-13.7" x2="315.8" y2="-13.7"/>
					<line class="st10" x1="315.8" y1="-16.4" x2="315.8" y2="-78.7"/>
					<line class="st9" x1="315.8" y1="-80" x2="315.8" y2="-80"/>
					<line class="st10" x1="318.5" y1="-80" x2="380.8" y2="-80"/>
					<line class="st9" x1="382.1" y1="-80" x2="382.1" y2="-80"/>
					<line class="st10" x1="382.1" y1="-77.3" x2="382.1" y2="-15"/>
				</g>
			</g>
		</g>
	</g>
</g>
<g id="Layer_6">
</g>
<g id="Layer_5">
	<g>
		<polygon id="XMLID_41_" class="st11" points="137.5,68.3 68.8,-0.4 0.1,-0.4 0.1,68.3 68.8,137 0.1,205.7 0.1,274.4 68.8,274.4 
			137.5,205.7 206.2,274.4 206.2,274.4 206.2,274.4 274.9,274.4 274.9,205.7 206.2,137 274.9,68.3 274.9,-0.4 206.2,-0.4 		"/>
		<polygon id="XMLID_39_" class="st12" points="183.5,96.8 114.8,28.1 46.1,28.1 46.1,96.8 114.8,165.5 46.1,234.2 46.1,302.9 
			114.8,302.9 183.5,234.2 252.2,302.9 252.2,302.9 252.2,302.9 320.9,302.9 320.9,234.2 252.2,165.5 320.9,96.8 320.9,28.1 
			252.2,28.1 		"/>
		<polygon class="st13" points="320.9,28.1 274.9,-0.4 206.2,-0.4 252.2,28.1 		"/>
		<polygon class="st13" points="114.8,28.5 68.8,0 0.1,0 46.1,28.5 		"/>
		<polygon class="st13" points="46.1,234.2 0.1,205.7 0.1,274.4 46.1,302.9 		"/>
		<polygon class="st13" points="183.6,234.3 173.8,243.8 205.6,277 252.2,302.9 		"/>
	</g>
</g>
</svg>
